<svg width="26" height="26" viewBox="0 0 26 26" fill="none" xmlns="http://www.w3.org/2000/svg">
<path d="M23.237 26H2.76302C2.03022 26 1.32744 25.709 0.809274 25.191C0.291108 24.673 0 23.9705 0 23.238V2.76204C0 2.0295 0.291108 1.32698 0.809274 0.808994C1.32744 0.291011 2.03022 0 2.76302 0H23.237C23.9698 0 24.6726 0.291011 25.1907 0.808994C25.7089 1.32698 26 2.0295 26 2.76204V23.238C26 23.9705 25.7089 24.673 25.1907 25.191C24.6726 25.709 23.9698 26 23.237 26Z" fill="#002B55"/>
<path d="M12.1068 17C11.8333 17.0006 11.5625 16.9476 11.3098 16.8439C11.057 16.7403 10.8274 16.5881 10.634 16.396L7 12.7864L9.07465 10.725L12.1109 13.7408L14.5131 11.3859L17.9253 8L20 10.0607L16.5809 13.4575L13.5727 16.4062C13.182 16.7884 12.6551 17.0018 12.1068 17Z" fill="#E51A3C"/>
</svg>
