<svg width="42" height="44" viewBox="0 0 42 44" fill="none" xmlns="http://www.w3.org/2000/svg">
<path d="M32 12.878V1H9.00729L1 8.35943L1 43H14.2773H22.5547H32V32.1951V31.939" stroke="#CFDAE5" stroke-width="2" stroke-linecap="round" stroke-linejoin="round"/>
<path d="M1 9H9V1" stroke="#CFDAE5" stroke-width="2" stroke-linecap="round" stroke-linejoin="round"/>
<path d="M17 28.6087L18.5317 20.8502C18.8197 19.3918 19.8926 18.2133 21.3178 17.7903L26.1996 16.3413C26.9497 16.1187 27.7486 16.1209 28.4975 16.3478L29 16.5" stroke="#CFDAE5" stroke-width="2" stroke-linecap="round" stroke-linejoin="round"/>
<path d="M25 25.0415L30.4601 19.5814L35.9201 14.1213L33.7988 12L15.4141 30.3848L15.0605 32.8596L17.5354 32.5061L21 29.0415" stroke="#E51A3C" stroke-width="2" stroke-linecap="round" stroke-linejoin="round"/>
<path d="M33.2152 17.8011L32.5163 17.0859L31.0859 18.4837L31.7848 19.1989L33.2152 17.8011ZM33.6386 19.6652L34.3538 18.9663V18.9663L33.6386 19.6652ZM40.4078 20.8697H41.4078C41.4078 20.3174 40.9601 19.8697 40.4078 19.8697V20.8697ZM40.4078 31.0001V32.0001C40.9601 32.0001 41.4078 31.5524 41.4078 31.0001H40.4078ZM29.9223 31.0001V30.0001L29.9142 30.0001L29.9223 31.0001ZM23.8302 31.0496L23.8383 32.0496H23.8383L23.8302 31.0496ZM31.9223 26.4349C32.4746 26.4349 32.9223 25.9872 32.9223 25.4349C32.9223 24.8826 32.4746 24.4349 31.9223 24.4349V26.4349ZM31.7848 19.1989L32.9234 20.3641L34.3538 18.9663L33.2152 17.8011L31.7848 19.1989ZM36.4995 21.8697H40.4078V19.8697H36.4995V21.8697ZM39.4078 20.8697V31.0001H41.4078V20.8697H39.4078ZM34.8155 30.0001H29.9223V32.0001H34.8155V30.0001ZM29.9142 30.0001L23.8221 30.0496L23.8383 32.0496L29.9305 32.0001L29.9142 30.0001ZM23.8074 26.4349H31.9223V24.4349H23.8074V26.4349ZM40.4078 30.0001H37.6117V32.0001H40.4078V30.0001ZM37.6117 30.0001H34.8155V32.0001H37.6117V30.0001ZM22 28.2423C22 27.2441 22.8092 26.4349 23.8074 26.4349V24.4349C21.7046 24.4349 20 26.1395 20 28.2423H22ZM23.8221 30.0496C22.8182 30.0578 22 29.2462 22 28.2423H20C20 30.3571 21.7235 32.0667 23.8383 32.0496L23.8221 30.0496ZM32.9234 20.3641C33.8642 21.3269 35.1534 21.8697 36.4995 21.8697V19.8697C35.6919 19.8697 34.9183 19.544 34.3538 18.9663L32.9234 20.3641Z" fill="#CFDAE5"/>
<path d="M35.9199 14.1211L30.4598 19.5812" stroke="#E51A3C" stroke-width="2" stroke-linecap="round" stroke-linejoin="round"/>
<path d="M14 16H11H8" stroke="#CFDAE5" stroke-width="2" stroke-linecap="round"/>
<path d="M20 13H14L8 13" stroke="#CFDAE5" stroke-width="2" stroke-linecap="round"/>
<path d="M11.75 33H8" stroke="#CFDAE5" stroke-width="2" stroke-linecap="round"/>
</svg>
