<svg width="82" height="82" viewBox="0 0 82 82" fill="none" xmlns="http://www.w3.org/2000/svg">
<path d="M41 61C41.4479 61.8941 41.4481 61.894 41.4484 61.8939L41.4492 61.8934L41.4518 61.8921L41.4612 61.8874L41.4958 61.8699C41.5259 61.8546 41.5698 61.8322 41.6265 61.803C41.7399 61.7445 41.9049 61.6587 42.114 61.5475C42.532 61.3252 43.1272 61.0015 43.8406 60.593C45.2655 59.7772 47.1711 58.6181 49.0821 57.2502C50.9865 55.8869 52.9311 54.2915 54.4096 52.5977C55.8644 50.9309 57 49.0194 57 47.0387V45.7272V45.6831V45.6389V45.5944V45.5498V45.505V45.4601V45.415V45.3697V45.0014V44.2349V43.8379V43.7877V43.7373V43.6868V43.6362V43.5854V43.5345V43.4835V43.4324V43.3812V43.3298V43.2783V43.2267V43.175V43.1231V43.0712V43.0191V42.9669V42.9146V42.8622V42.8096V42.757V42.7043V42.6514V42.5984V42.5454V42.4922V42.4389V42.3856V42.3321V42.2785V42.2249V42.1711V42.1172V42.0633V42.0092V41.9551V41.9008V41.8465V41.7921V41.7376V41.683V41.6283V41.5735V41.5187V41.4638V41.4088V41.3537V41.2985V41.2432V41.1879V41.1325V41.077V41.0215V40.9659V40.9102V40.8544V40.7986V40.7427V40.6867V40.6307V40.5746V40.5184V40.4622V40.4059V40.3495V40.2931V40.2367V40.1801V40.1236V40.0669V40.0102V39.9535V39.8967V39.8399V39.783V39.726V39.669V39.612V39.5549V39.4978V39.4406V39.3834V39.3262V39.2689V39.2116V39.1542V39.0968V39.0394V38.982V38.9245V38.8669V38.8094V38.7518V38.6942V38.6365V38.5789V38.5212V38.4635V38.4057V38.348V38.2902V38.2324V38.1746V38.1168V38.0589V38.0011V37.9432V37.8853V37.8274V37.7695V37.7116V37.6537V37.5957V37.5378V37.4798V37.4219V37.364V37.306V37.2481V37.1901V37.1322V37.0742V37.0163V36.9584V36.9004V36.8425V36.7846V36.7267V36.6688V36.611V36.5531V36.4952V36.4374V36.3796V36.3218V36.264V36.2063V36.1485V36.0908V36.0331V35.9755V35.9178V35.8602V35.8026V35.7451V35.6876V35.6301V35.5726V35.5152V35.4578V35.4004V35.3431V35.2858V35.2286V35.1714V35.1142V35.0571V35V34.943V34.886V34.8291V34.7722V34.6586V34.6018V34.5451V34.4885V34.4319V34.3754V34.3189V34.2625V34.2062V34.1499V34.0937V34.0375V33.9814V33.9254V33.8694V33.8135V33.7577V33.7019V33.6462V33.5906V33.535V33.4796V33.4242V33.3688V33.3136V33.2584V33.2033V33.1483V33.0934V33.0385V32.9838V32.9291V32.8745V32.82V32.7656V32.7113V32.657V32.6029V32.5488V32.4949V32.441V32.3336V32.28V32.2266V32.1732V32.1199V32.0668V32.0137V31.9607V31.9079V31.8552V31.8025V31.75V31.6976V31.6453V31.5931V31.541V31.4891V31.4372V31.3855V31.3339V31.2824V31.231V31.1798V31.1287V31.0777V31.0268V30.976V30.9254V30.8749V30.8246V30.7743V30.7242V30.6743V30.6244V30.5747V30.5252V30.4758V30.4265V30.3773V30.3283V30.2795V30.2307V30.1822V30.1337V30.0855V30.0373V29.9893V29.9415V29.8938V29.8463V29.7989V29.7517V29.7046V29.6577V29.6109V29.5643V29.5179V29.4716V29.4255V28.7106V27.4245V25.5551V25.045V25.0342V25.0237V25.0136V25.0038V24.9943V24.9852V24.9764V24.9679V24.9597V24.9519V24.9444V24.9373V24.9305V24.924V24.9179V24.9121V24.9067V24.9016V24.8968V24.8924V24.8883V24.8846V24.8812V24.8782V24.8756V24.8732V24.8713V24.8697V24.8684V24.8675V24.867C57 24.8669 57 24.8668 56 24.8668H57C57 24.4551 56.7477 24.0855 56.3643 23.9355L41.3643 18.0687C41.1301 17.9771 40.8699 17.9771 40.6357 18.0687L25.6357 23.9355C25.2523 24.0855 25 24.4551 25 24.8668V26.8433H26C25 26.8433 25 26.8433 25 26.8434V26.8439V26.8447V26.8458V26.8472V26.8489V26.8509V26.8533V26.8559V26.8589V26.8621V26.8657V26.8695V26.8737V26.8781V26.8829V26.888V26.8933V26.899V26.905V26.9112V26.9178V26.9246V26.9317V26.9392V26.9469V26.9549V26.9632V26.9718V26.9806V26.9898V26.9992V27.009V27.019V27.0293V27.0399V27.0507V27.0619V27.0733V27.085V27.0969V27.1092V27.1217V27.1345V27.1476V27.1609V27.1745V27.1884V27.4466V27.465V27.4835V27.5024V27.5215V27.5604V27.5803V27.6004V27.6207V27.6413V27.6621V27.6832V27.7045V27.7261V27.7699V27.7922V27.8147V27.8375V27.8605V27.8837V27.9072V27.9309V27.9548V27.979V28.0034V28.0528V28.0779V28.1032V28.1545V29.0922V34.5233V47.0387C25 49.0194 26.1356 50.9309 27.5904 52.5977C29.0689 54.2915 31.0135 55.8869 32.9179 57.2502C34.8289 58.6181 36.7345 59.7772 38.1594 60.593C38.8728 61.0015 39.468 61.3252 39.886 61.5475C40.0951 61.6587 40.2601 61.7445 40.3735 61.803C40.4302 61.8322 40.4741 61.8546 40.5042 61.8699L40.5388 61.8874L40.5482 61.8921L40.5508 61.8934L40.5516 61.8939C40.5519 61.894 40.5521 61.8941 41 61ZM41 61L41.4479 61.8941C41.166 62.0353 40.834 62.0353 40.5521 61.8941L41 61Z" stroke="#CFDAE5" stroke-width="2" stroke-linecap="round" stroke-linejoin="round"/>
<path d="M29 29.1192C29 29.1192 29 41.1358 29 46.1474C29 51.1591 41 57 41 57C41 57 43.8598 55.608 46.7873 53.6C49.8565 51.4948 53 48.7125 53 46.1474C53 41.1358 53 29.1192 53 29.1192M33 25.9143L41 23L48.5 25.9143" stroke="#CFDAE5" stroke-width="2" stroke-linecap="round" stroke-linejoin="round"/>
<path d="M37.6919 39.278C37.2932 38.8959 36.6601 38.9094 36.278 39.3081C35.8959 39.7068 35.9094 40.3399 36.3081 40.722L37.6919 39.278ZM40.1304 43L39.4385 43.722C39.8344 44.1013 40.4619 44.0912 40.8453 43.6993L40.1304 43ZM46.7148 37.6993C47.101 37.3045 47.0941 36.6714 46.6993 36.2852C46.3045 35.899 45.6714 35.9059 45.2852 36.3007L46.7148 37.6993ZM43.0652 40L42.3504 39.3007L42.3504 39.3007L43.0652 40ZM36.3081 40.722L39.4385 43.722L40.8223 42.278L37.6919 39.278L36.3081 40.722ZM40.8453 43.6993L43.7801 40.6993L42.3504 39.3007L39.4156 42.3007L40.8453 43.6993ZM43.7801 40.6993L46.7148 37.6993L45.2852 36.3007L42.3504 39.3007L43.7801 40.6993Z" fill="#E51A3C"/>
</svg>
