<svg width="101" height="34" viewBox="0 0 101 34" fill="none" xmlns="http://www.w3.org/2000/svg"><path d="M86.793 17.165a3.737 3.737 0 0 1-2.65-1.094L77.6 9.53l3.734-3.736L86.8 11.26l4.324-4.268L97.266.857 101 4.59l-6.154 6.155-5.415 5.343a3.742 3.742 0 0 1-2.638 1.076Z" fill="#E51A3C"/><path fill-rule="evenodd" clip-rule="evenodd" d="M54.83 12.791v4.735l-4.092.003v7.904c.001.94.235 1.644.702 2.113.493.47 1.169.705 2.026.705.47.015.937-.078 1.364-.274v4.852a7.97 7.97 0 0 1-2.683.429c-1.974-.001-3.584-.654-4.83-1.957-1.247-1.304-1.87-3.078-1.87-5.322v-8.453h-3.079v-4.343h1.364c.043 0 .086-.002.129-.004.041-.002.082-.005.123-.005a1.965 1.965 0 0 0 2.124-1.957.917.917 0 0 0-.004-.074c-.002-.025-.004-.05-.004-.074.009-.076.009-.153.009-.234V7.782h4.63v5.01h4.09ZM40.669 24.688c.156-.522.234-1.265.234-2.231 0-1.904-.44-3.625-1.32-5.164a9.457 9.457 0 0 0-3.544-3.685 9.511 9.511 0 0 0-9.897.123 10.507 10.507 0 0 0-5.103 9.04 10.592 10.592 0 0 0 1.363 5.281 10.36 10.36 0 0 0 3.695 3.794 9.717 9.717 0 0 0 5.102 1.412 8.894 8.894 0 0 0 4.054-.94 9.962 9.962 0 0 0 3.117-2.387c.857-.965 1.48-1.93 1.871-2.896h-5.572c-.91.992-2.091 1.487-3.546 1.487-1.195 0-2.22-.339-3.078-1.017-.83-.678-1.389-1.617-1.675-2.817h14.299Zm-12.545-6.614a4.58 4.58 0 0 1 3-1.056 4.377 4.377 0 0 1 2.921 1.056c.858.705 1.442 1.644 1.754 2.818h-9.43c.313-1.2.897-2.14 1.755-2.818Zm-13.318-5.283L10.21 26.448 5.61 12.79H0l7.48 19.957h5.218l7.485-19.957h-5.377Zm51.102-.508c2.572 0 4.599.782 6.079 2.347 1.48 1.54 2.22 3.601 2.22 6.184v11.934h-3.973l-.86-1.956h-.195c-1.556 1.642-3.44 2.464-5.65 2.466a7.532 7.532 0 0 1-3.43-.784 6.228 6.228 0 0 1-2.415-2.152 5.559 5.559 0 0 1-.86-3.013c0-1.356.403-2.53 1.208-3.522.806-1.017 1.923-1.786 3.35-2.308 1.455-.548 3.118-.823 4.988-.823h2.533v-.39c0-1.017-.273-1.813-.818-2.387-.546-.574-1.286-.86-2.221-.86-.806 0-1.455.222-1.948.665-.468.417-.755.874-.86 1.37h-5.29a7.493 7.493 0 0 1 1.09-3.288 7.001 7.001 0 0 1 2.766-2.503c1.196-.653 2.624-.98 4.286-.98Zm-1.129 16.63c1.22 0 2.206-.365 2.96-1.096.78-.73 1.17-1.59 1.17-2.58V24.22H66.22c-1.429 0-2.468.235-3.116.705a2.142 2.142 0 0 0-.974 1.878 1.947 1.947 0 0 0 .662 1.527c.468.389 1.13.583 1.987.583Z" fill="#E1E5EA"/></svg>