<svg width="101" height="34" viewBox="0 0 101 34" fill="none" xmlns="http://www.w3.org/2000/svg">
<path d="M86.793 17.1654C86.3008 17.1665 85.8133 17.0704 85.3584 16.8826C84.9035 16.6948 84.4902 16.4189 84.1423 16.0709L77.6014 9.53012L81.3355 5.79478L86.8003 11.2596L91.124 6.99239L97.2656 0.856934L101 4.59105L94.8458 10.7462L89.4314 16.0893C88.7283 16.782 87.7799 17.1687 86.793 17.1654Z" fill="#E51A3C"/>
<path fill-rule="evenodd" clip-rule="evenodd" d="M54.8298 12.7913V17.5265L50.7383 17.5289V25.4332C50.7391 26.3725 50.9729 27.0767 51.4396 27.5459C51.9334 28.0159 52.609 28.251 53.4664 28.251C53.9359 28.2664 54.4027 28.1726 54.8298 27.977V32.8289C53.9668 33.1247 53.0593 33.2697 52.1472 33.2576C50.1728 33.2568 48.5625 32.6045 47.3162 31.3009C46.0698 29.9972 45.4467 28.2231 45.4467 25.9786V17.5265H42.3685V13.1832H43.7319C43.7754 13.1832 43.8182 13.181 43.8606 13.1788C43.902 13.1766 43.943 13.1745 43.9837 13.1745C44.0365 13.1831 44.0894 13.1832 44.1422 13.1832C44.6634 13.1832 45.1633 12.9761 45.5319 12.6075C45.9004 12.239 46.1075 11.7391 46.1075 11.2178C46.1075 11.1925 46.1056 11.1675 46.1038 11.1426C46.102 11.118 46.1001 11.0936 46.1001 11.0692C46.1087 10.9931 46.1087 10.9158 46.1087 10.8348V7.78223H50.7383V12.7913H54.8298ZM40.6685 24.6876C40.8249 24.166 40.9031 23.4225 40.9031 22.457C40.9031 20.5531 40.4634 18.8318 39.5839 17.2931C38.763 15.7626 37.5365 14.4877 36.0389 13.6082C34.537 12.7184 32.819 12.2592 31.0734 12.2808C29.3278 12.3025 27.6218 12.8042 26.1424 13.731C24.5817 14.6667 23.2908 15.9917 22.3961 17.5762C21.5015 19.1608 21.0337 20.9506 21.0387 22.7702C21.0245 24.6196 21.4946 26.4405 22.4021 28.052C23.2842 29.6155 24.5574 30.923 26.0969 31.8463C27.6343 32.7799 29.4007 33.2685 31.1994 33.2576C32.6058 33.2693 33.995 32.9473 35.2528 32.318C36.44 31.7371 37.4998 30.9258 38.3703 29.9313C39.2268 28.9658 39.8504 28.0004 40.241 27.0349H34.6694C33.7596 28.0266 32.5775 28.5224 31.1232 28.5224C29.9285 28.5224 28.9024 28.1834 28.045 27.5054C27.2147 26.8273 26.6562 25.8881 26.3696 24.6876H40.6685ZM28.1236 18.0743C28.9652 17.3752 30.0293 17.0005 31.1232 17.018C32.1937 17.0009 33.2333 17.3767 34.0454 18.0743C34.9027 18.7786 35.4874 19.7178 35.7994 20.8921H26.3696C26.6816 19.6916 27.2663 18.7524 28.1236 18.0743ZM14.8062 12.7913L10.2086 26.4478L5.61097 12.7913H0L7.48048 32.7479H12.6984L20.1825 12.7913H14.8062ZM65.908 12.2828C68.4801 12.2828 70.5065 13.0652 71.987 14.6301C73.4675 16.1704 74.2078 18.2315 74.2078 20.8135V32.7479H70.2342L69.3744 30.7923H69.1791C67.6232 32.4342 65.7398 33.256 63.5288 33.2576C62.3398 33.2707 61.1646 33.0022 60.0993 32.4739C59.1189 31.9818 58.2858 31.2394 57.6844 30.3219C57.1148 29.4208 56.8164 28.3749 56.8246 27.3088C56.8246 25.9528 57.2271 24.7789 58.032 23.7872C58.8378 22.7702 59.9548 22.0009 61.3829 21.4792C62.8372 20.9306 64.4996 20.6562 66.3699 20.6562H68.9027V20.2656C68.9027 19.2486 68.63 18.4531 68.0846 17.879C67.5393 17.305 66.799 17.0184 65.8638 17.0192C65.058 17.0192 64.4087 17.2407 63.9157 17.6837C63.4481 18.1013 63.1615 18.5579 63.0559 19.0533H57.7655C57.8674 17.8875 58.241 16.7618 58.8563 15.7663C59.5349 14.6971 60.4909 13.8319 61.6224 13.263C62.818 12.6095 64.2465 12.2828 65.908 12.2828ZM64.7792 28.913C65.9985 28.913 66.9853 28.5478 67.7395 27.8174C68.5199 27.0877 68.9096 26.2279 68.9088 25.2379V24.2196H66.22C64.7911 24.2196 63.7523 24.4546 63.1038 24.9247C62.7928 25.1267 62.5396 25.406 62.3689 25.7352C62.1982 26.0644 62.1157 26.4322 62.1297 26.8028C62.1204 27.0904 62.1749 27.3765 62.2894 27.6405C62.4039 27.9045 62.5755 28.1398 62.7918 28.3296C63.2602 28.7186 63.9227 28.913 64.7792 28.913Z" fill="#E1E5EA"/>
</svg>
