<svg width="54" height="49" viewBox="0 0 54 49" fill="none" xmlns="http://www.w3.org/2000/svg">
<path d="M25.7081 19.7633C24.7165 19.7633 23.9161 20.6114 23.9161 21.662V27.9912C23.9161 28.3456 23.6533 28.6241 23.3188 28.6241C22.9844 28.6241 22.7215 28.3456 22.7215 27.9912V17.8645C22.7215 16.8139 21.9212 15.9658 20.9296 15.9658C19.9381 15.9658 19.1377 16.8139 19.1377 17.8645V27.9912C19.1377 28.3456 18.8749 28.6241 18.5404 28.6241C18.2059 28.6241 17.9431 28.3456 17.9431 27.9912V16.5987C17.9431 15.5481 17.1427 14.7 16.1512 14.7C15.1597 14.7 14.3593 15.5481 14.3593 16.5987V27.9785C14.3593 28.333 14.0965 28.6115 13.762 28.6115C13.4275 28.6115 13.1647 28.333 13.1647 27.9785V20.3962C13.1647 19.3456 12.3643 18.4975 11.3728 18.4975C10.3813 18.4975 9.58087 19.3456 9.58087 20.3962V34.8394L4.65909 31.8647C3.96622 31.4469 3.1061 31.5609 2.53269 32.1431C1.81593 32.8773 1.79204 34.0925 2.49685 34.8394L10.5963 43.561C11.4922 44.5356 12.7107 45.08 14.0009 45.08H22.7215C25.3616 45.08 27.5 42.8141 27.5 40.0166V21.662C27.5 20.6114 26.6996 19.7633 25.7081 19.7633Z" stroke="#DAE2EF" stroke-width="2" stroke-linecap="round" stroke-linejoin="round"/>
<path d="M35.094 22.9688L35.094 34.3613C35.094 35.4119 35.8944 36.26 36.8859 36.26C37.8774 36.26 38.6778 35.4119 38.6778 34.3613L38.6778 22.9814C38.6778 22.627 38.9406 22.3485 39.2751 22.3485C39.6096 22.3485 39.8724 22.627 39.8724 22.9814L39.8724 30.5638C39.8724 31.6144 40.6728 32.4625 41.6643 32.4625C42.6559 32.4625 43.4562 31.6144 43.4562 30.5638L43.4562 16.1206L48.378 19.0953C49.0709 19.513 49.931 19.3991 50.5044 18.8168C51.2212 18.0826 51.2451 16.8674 50.5403 16.1206L42.4408 7.39901C41.5449 6.42432 40.3264 5.88001 39.0362 5.88001L30.3156 5.88001C27.6755 5.88001 25.5371 8.14585 25.5371 10.9433L25.5371 16.1206" stroke="#E51A3C" stroke-width="2" stroke-linecap="round" stroke-linejoin="round"/>
<path d="M30.6409 23.0299L30.6409 32.9524C30.6409 34.0031 31.4412 34.8512 32.4328 34.8512C33.4243 34.8512 34.2247 34.0031 34.2247 32.9524L34.2247 23.0426C34.2247 22.5399 35.0566 22.5399 35.0566 23.0299" stroke="#E51A3C" stroke-width="2" stroke-linecap="round" stroke-linejoin="round"/>
</svg>
