<svg width="40" height="42" viewBox="0 0 40 42" fill="none" xmlns="http://www.w3.org/2000/svg">
<path d="M24.7908 7.67442C28.162 6.42296 29.5582 1 29.5582 1H19.0698C19.0698 1 20.466 6.00581 23.8373 7.67442" stroke="#DAE2EF" stroke-width="2" stroke-linecap="round" stroke-linejoin="round"/>
<path d="M38.1401 31.9884C38.1401 24.3605 39.0929 14.8256 25.3702 7.67445" stroke="#DAE2EF" stroke-width="2" stroke-linecap="round" stroke-linejoin="round"/>
<path d="M22.8839 7.67442C14.2523 12.1725 11.9188 17.686 10.9653 21.5" stroke="#DAE2EF" stroke-width="2" stroke-linecap="round" stroke-linejoin="round"/>
<path d="M14.3022 39.1396H37.1955C37.7478 39.1396 38.1955 38.7886 38.1955 38.2364C38.1955 37.3042 38.1955 35.4876 38.1955 31.9884" stroke="#DAE2EF" stroke-width="2" stroke-linecap="round" stroke-linejoin="round"/>
<rect x="1" y="36.3256" width="13.2558" height="4.67442" rx="1" stroke="#E51A3C" stroke-width="2" stroke-linejoin="round"/>
<rect x="1" y="31.5581" width="13.2558" height="4.67442" rx="1" stroke="#E51A3C" stroke-width="2" stroke-linejoin="round"/>
<rect x="1" y="26.7906" width="13.2558" height="4.67442" rx="1" stroke="#E51A3C" stroke-width="2" stroke-linejoin="round"/>
<rect x="1" y="22.0233" width="13.2558" height="4.67442" rx="1" stroke="#E51A3C" stroke-width="2" stroke-linejoin="round"/>
<path d="M24.7905 29.6046H20.0231" stroke="#DAE2EF" stroke-width="2" stroke-linecap="round"/>
<line x1="21.9766" y1="21.0698" x2="21.9766" y2="31.4652" stroke="#DAE2EF" stroke-width="2" stroke-linecap="round"/>
<path d="M20.0234 20.0698H25.2676C27.1107 20.0698 28.6048 21.5639 28.6048 23.407V23.407C28.6048 25.2501 27.1107 26.7442 25.2676 26.7442H20.0234" stroke="#DAE2EF" stroke-width="2" stroke-linecap="round"/>
</svg>
