<svg width="44" height="46" viewBox="0 0 44 46" fill="none" xmlns="http://www.w3.org/2000/svg">
<path d="M6.40332 33.0623L6.40332 11.7347L12.8131 5.16309H25.1553M34.7599 14.3104V42.667H26.12H18.5485H10.977" stroke="#CFDAE5" stroke-width="2" stroke-linecap="round" stroke-linejoin="round"/>
<path d="M7.31763 12.4809H13.7207V5.16309" stroke="#CFDAE5" stroke-width="2" stroke-linecap="round" stroke-linejoin="round"/>
<rect x="22.369" y="8.0271" width="12.5184" height="12.5184" rx="6.25921" transform="rotate(-45 22.369 8.0271)" stroke="#E51A3C" stroke-width="2" stroke-linejoin="round"/>
<rect x="1" y="40.9229" width="9.89148" height="3.48838" rx="1" stroke="#CFDAE5" stroke-width="2" stroke-linejoin="round"/>
<rect x="1" y="37.2637" width="9.89148" height="3.48838" rx="1" stroke="#CFDAE5" stroke-width="2" stroke-linejoin="round"/>
<rect x="1" y="33.605" width="9.89148" height="3.48838" rx="1" stroke="#CFDAE5" stroke-width="2" stroke-linejoin="round"/>
<path d="M34.5027 12.2388L41.1482 18.8843L42.9106 17.1219L36.2651 10.4763" stroke="#E51A3C" stroke-width="2" stroke-linejoin="round"/>
<rect x="13.7207" y="16.1396" width="3.65892" height="3.65892" stroke="#CFDAE5" stroke-width="2" stroke-linejoin="round"/>
<rect x="13.7207" y="23.458" width="3.65892" height="3.65892" stroke="#CFDAE5" stroke-width="2" stroke-linejoin="round"/>
<rect x="13.7207" y="30.7754" width="3.65892" height="3.65892" stroke="#CFDAE5" stroke-width="2" stroke-linejoin="round"/>
<path d="M21.0388 25.2871H28.3567" stroke="#CFDAE5" stroke-width="2" stroke-linecap="round"/>
<path d="M21.0388 17.9692H28.3567" stroke="#CFDAE5" stroke-width="2" stroke-linecap="round"/>
<path d="M21.0388 32.605H28.3567" stroke="#CFDAE5" stroke-width="2" stroke-linecap="round"/>
</svg>
