<svg width="42" height="42" viewBox="0 0 42 42" fill="none" xmlns="http://www.w3.org/2000/svg">
<g clip-path="url(#clip0_2311_760)">
<path d="M20.7439 41.0455C21.1526 41.8989 21.1527 41.8988 21.153 41.8987M20.7439 41.0455C20.3353 41.8989 20.3344 41.8983 20.3341 41.8982L20.3317 41.897L20.3231 41.8925L20.2916 41.8758C20.2641 41.8612 20.2241 41.8398 20.1723 41.812C20.0689 41.7561 19.9183 41.6742 19.7276 41.5681C19.3462 41.3559 18.8032 41.0469 18.1523 40.657C16.8523 39.8782 15.1137 38.7718 13.3702 37.4661C11.6328 36.1648 9.85861 34.6419 8.50971 33.0251C7.18242 31.434 6.14636 29.6094 6.14636 27.7188V15.7722V10.588V9.69293V9.64396V9.61981V9.59585V9.5487V9.52541V9.50231V9.47949V9.45687V9.43444V9.41229V9.39034V9.36858V9.3471V9.32581V9.284V9.26339V9.24305V9.22291V9.20306V9.1834V9.16402V9.14483V9.12584V9.0887V9.07047V9.05243V9.03477V9.01721V8.77074V8.75748V8.74449V8.7318V8.71929V8.70708V8.69514V8.6834V8.67204V8.66088V8.64999V8.6393V8.62899V8.61888V8.60904V8.5995V8.59015V8.58117V8.57239V8.56399V8.55578V8.54786V8.54022V8.53287V8.52571V8.51894V8.51245V8.50614V8.50023V8.4945V8.48906V8.484V8.47913V8.47455V8.47035V8.46634V8.46271V8.45928V8.45622V8.45336V8.45088V8.44859V8.44668V8.44505V8.44372V8.44267V8.44133M20.7439 41.0455L21.153 41.8987M20.7439 41.0455L20.3353 41.8989C20.5925 42.0337 20.8958 42.0335 21.153 41.8987M21.153 41.8987L21.1561 41.897L21.1647 41.8925L21.1963 41.8758C21.2237 41.8612 21.2638 41.8398 21.3155 41.812C21.419 41.7561 21.5695 41.6742 21.7603 41.5681C22.1416 41.3559 22.6847 41.0469 23.3355 40.657C24.6355 39.8782 26.3741 38.7718 28.1176 37.4661C29.8551 36.1648 31.6292 34.6419 32.9781 33.0251C34.3054 31.434 35.3415 29.6094 35.3415 27.7188V26.4669V26.4248V26.3826V26.3401V26.2975V26.2548V26.2119V26.1689V26.1256V25.7741V25.0424V24.6634V24.6155V24.5674V24.5192V24.4709V24.4224V24.3738V24.3252V24.2764V24.2275V24.1784V24.1293V24.08V24.0307V23.9811V23.9316V23.8819V23.832V23.7821V23.7321V23.6819V23.6317V23.5814V23.5309V23.4803V23.4297V23.3789V23.328V23.2772V23.2261V23.1749V23.1238V23.0724V23.021V22.9695V22.9179V22.8662V22.8144V22.7626V22.7106V22.6586V22.6065V22.5543V22.502V22.4497V22.3973V22.3448V22.2922V22.2395V22.1867V22.1339V22.081V22.028V21.9751V21.922V21.8688V21.8156V21.7623V21.7089V21.6555V21.602V21.5485V21.4948V21.4412V21.3874V21.3336V21.2798V21.2259V21.1719V21.118V21.0639V21.0097V20.9556V20.9014V20.8472V20.7929V20.7385V20.684V20.6296V20.5751V20.5206V20.466V20.4114V20.3568V20.3021V20.2474V20.1926V20.1379V20.0831V20.0283V19.9734V19.9184V19.8635V19.8085V19.7536V19.6985V19.6435V19.5884V19.5333V19.4782V19.4231V19.3679V19.3127V19.2576V19.2024V19.1471V19.092V19.0367V18.9814V18.9262V18.8709V18.8156V18.7604V18.705V18.6497V18.5944V18.5391V18.4838V18.4285V18.3732V18.3178V18.2626V18.2072V18.1519V18.0967V18.0413V17.986V17.9308V17.8755V17.8202V17.765V17.7098V17.6545V17.5993V17.5442V17.489V17.4338V17.3787V17.3236V17.2685V17.2134V17.1584V17.1034V17.0484V16.9934V16.9385V16.8836V16.8287V16.7738V16.7191V16.6643V16.6095V16.5548V16.5001V16.4455V16.3909V16.3363V16.2818V16.2273V16.1729V16.1185V16.0641V16.0098V15.9014V15.8472V15.7931V15.739V15.685V15.6311V15.5771V15.5233V15.4696V15.4158V15.3622V15.3085V15.255V15.2015V15.1481V15.0947V15.0414V14.9882V14.935V14.8819V14.8289V14.776V14.7231V14.6702V14.6175V14.5648V14.5122V14.4597V14.4073V14.3549V14.3027V14.2505V14.1984V14.1464V14.0944V14.0426V13.9908V13.9391V13.8875V13.836V13.7846V13.6821V13.6309V13.5799V13.529V13.4781V13.4274V13.3767V13.3261V13.2757V13.2254V13.1751V13.125V13.075V13.0251V12.9752V12.9255V12.876V12.8264V12.7771V12.7278V12.6787V12.6296V12.5807V12.5319V12.4833V12.4347V12.3862V12.3379V12.2897V12.2417V12.1936V12.1458V12.0982V12.0506V12.0031V11.9559V11.9087V11.8617V11.8147V11.7679V11.7213V11.6748V11.6285V11.5822V11.5362V11.4901V11.4443V11.3987V11.3532V11.3078V11.2626V11.2175V11.1726V11.1278V11.0831V11.0386V10.9944V10.9502V10.9062V10.2238V8.99611V7.21168V6.72477V6.71446V6.70444V6.6948V6.68544V6.67638V6.66769V6.65929V6.65118V6.64335V6.6359V6.62875V6.62197V6.61548V6.60927V6.60345V6.59791V6.59276V6.58789V6.58331V6.57911V6.57519V6.57166V6.56842V6.56555V6.56307V6.56078V6.55897V6.55744V6.5562V6.55486M35.3415 6.55486C35.3415 6.55477 35.3415 6.55467 34.4291 6.55467L35.3415 6.55486ZM35.3415 6.55486C35.3415 6.16188 35.1113 5.80888 34.7615 5.6657L21.0763 0.0655773C20.8626 -0.0218591 20.6252 -0.0218591 20.4116 0.0655773L6.72634 5.6657C6.37655 5.80888 6.14636 6.16169 6.14636 6.55467V8.44133M6.14636 8.44133H7.05871C6.14636 8.44133 6.14636 8.44124 6.14636 8.44133Z" stroke="#CFDAE5" stroke-width="2" stroke-linecap="round" stroke-linejoin="round"/>
<path d="M9.73169 10.5096C9.73169 10.5096 9.73169 22.0952 9.73169 26.927C9.73169 31.759 20.7439 37.3903 20.7439 37.3903C20.7439 37.3903 23.3683 36.0483 26.0548 34.1123C28.8713 32.0826 31.7561 29.4001 31.7561 26.927C31.7561 22.0952 31.7561 10.5096 31.7561 10.5096M13.4024 7.41963L20.7439 4.60986L27.6265 7.41963" stroke="#CFDAE5" stroke-width="2" stroke-linecap="round" stroke-linejoin="round"/>
<path d="M17.8871 20.2603C17.5343 19.8689 16.9742 19.8827 16.6362 20.2911C16.2981 20.6996 16.3101 21.3481 16.6628 21.7395L17.8871 20.2603ZM20.0444 24.0731L19.4323 24.8127C19.7825 25.2013 20.3377 25.1909 20.6769 24.7894L20.0444 24.0731ZM25.8697 18.6431C26.2113 18.2387 26.2052 17.5901 25.8559 17.1945C25.5067 16.7989 24.9466 16.8059 24.6049 17.2104L25.8697 18.6431ZM16.6628 21.7395L19.4323 24.8127L20.6565 23.3335L17.8871 20.2603L16.6628 21.7395ZM20.6769 24.7894L23.2733 21.7163L22.0085 20.2835L19.412 23.3567L20.6769 24.7894ZM23.2733 21.7163L25.8697 18.6431L24.6049 17.2104L22.0085 20.2835L23.2733 21.7163Z" fill="#E51A3C"/>
</g>
<defs>
<clipPath id="clip0_2311_760">
<rect width="42" height="42" fill="white"/>
</clipPath>
</defs>
</svg>
