<svg width="39" height="43" viewBox="0 0 39 43" fill="none" xmlns="http://www.w3.org/2000/svg">
<path d="M13.0039 43.0001V40.0001C13.0039 37.2387 10.7653 35.0001 8.00391 35.0001H6.00391C3.24248 35.0001 1.00391 37.2387 1.00391 40.0001V43.0001" stroke="#CFDAE5" stroke-width="2" stroke-linejoin="round"/>
<circle cx="7.00391" cy="31.0001" r="4" stroke="#CFDAE5" stroke-width="2" stroke-linejoin="round"/>
<path d="M1 42.0001H13" stroke="#CFDAE5" stroke-width="2" stroke-linecap="round"/>
<path d="M26.0039 43.0001V40.0001C26.0039 37.2387 23.7653 35.0001 21.0039 35.0001H19.0039C16.2425 35.0001 14.0039 37.2387 14.0039 40.0001V43.0001" stroke="#CFDAE5" stroke-width="2" stroke-linejoin="round"/>
<circle cx="20.0039" cy="31.0001" r="4" stroke="#CFDAE5" stroke-width="2" stroke-linejoin="round"/>
<path d="M14 42.0001H26" stroke="#CFDAE5" stroke-width="2" stroke-linecap="round"/>
<path d="M38.0039 43.0001V40.0001C38.0039 37.2387 35.7653 35.0001 33.0039 35.0001H31.0039C28.2425 35.0001 26.0039 37.2387 26.0039 40.0001V43.0001" stroke="#CFDAE5" stroke-width="2" stroke-linejoin="round"/>
<circle cx="32.0039" cy="31.0001" r="4" stroke="#CFDAE5" stroke-width="2" stroke-linejoin="round"/>
<path d="M26 42.0001H38" stroke="#CFDAE5" stroke-width="2" stroke-linecap="round"/>
<path d="M19.1045 3.802C19.4722 3.06207 20.5278 3.06207 20.8955 3.802L22.5477 7.1264C22.6939 7.42057 22.9752 7.62418 23.3004 7.6711L26.9832 8.20252C27.8056 8.32119 28.1329 9.33288 27.5359 9.91079L24.8799 12.4817C24.6422 12.7118 24.5337 13.0445 24.59 13.3705L25.2182 17.0077C25.3591 17.8237 24.504 18.4476 23.77 18.0644L20.4628 16.3378C20.1728 16.1864 19.8272 16.1864 19.5372 16.3378L16.23 18.0644C15.496 18.4476 14.6409 17.8237 14.7818 17.0077L15.41 13.3705C15.4663 13.0445 15.3578 12.7118 15.1201 12.4817L12.4641 9.91079C11.8671 9.33288 12.1944 8.32119 13.0168 8.20252L16.6996 7.6711C17.0248 7.62418 17.3061 7.42057 17.4523 7.1264L19.1045 3.802Z" stroke="#CFDAE5" stroke-width="2" stroke-linecap="round" stroke-linejoin="round"/>
<path d="M13.0009 3.50012L10.7864 1.62161" stroke="#E51A3C" stroke-width="2" stroke-linecap="round" stroke-linejoin="round"/>
<path d="M7.543 16.2165L9.99976 15.0004" stroke="#E51A3C" stroke-width="2" stroke-linecap="round" stroke-linejoin="round"/>
<path d="M31.6785 16.2163L29.5 15.0002" stroke="#E51A3C" stroke-width="2" stroke-linecap="round" stroke-linejoin="round"/>
<path d="M25.999 3.5L27.999 1.5" stroke="#E51A3C" stroke-width="2" stroke-linecap="round" stroke-linejoin="round"/>
<line x1="19.8933" y1="21.1083" x2="19.8933" y2="23.0002" stroke="#E51A3C" stroke-width="2" stroke-linecap="round" stroke-linejoin="round"/>
</svg>
