<?xml version="1.0" encoding="utf-8"?><svg viewBox="0 0 84 84" xmlns="http://www.w3.org/2000/svg" xmlns:xlink="http://www.w3.org/1999/xlink"><style>:root>svg{display:none}:root>svg:target{display:block}</style><svg fill="none" viewBox="-1 -1 13 9" id="image-arrow" xmlns="http://www.w3.org/2000/svg"><path d="M10.377 1.329l-4.95 4.95-4.949-4.95" stroke="#002B55"/></svg><svg fill="none" viewBox="-1 -1 34 34" id="image-arrow_cc" xmlns="http://www.w3.org/2000/svg"><path d="M14.284 30l14-14-14-14" stroke="currentColor" stroke-width="4" stroke-linecap="round"/></svg><svg fill="none" viewBox="-1 -1 12 9" id="image-check" xmlns="http://www.w3.org/2000/svg"><path d="M1.361 3.394l2.64 2.184a1 1 0 001.344-.064L9.2 1.66" stroke="#737C9E" stroke-width="2"/></svg><svg fill="none" viewBox="-1 -1 28 28" id="image-checkbox" xmlns="http://www.w3.org/2000/svg"><path d="M23.237 26H2.763A2.763 2.763 0 010 23.238V2.762A2.762 2.762 0 012.763 0h20.474A2.763 2.763 0 0126 2.762v20.476A2.761 2.761 0 0123.237 26z" fill="#002B55"/><path d="M12.107 17a2.087 2.087 0 01-1.473-.604L7 12.786l2.075-2.061 3.036 3.016 2.402-2.355L17.925 8 20 10.06l-3.42 3.397-3.007 2.95c-.391.381-.918.595-1.466.593z" fill="#E51A3C"/></svg><svg fill="none" viewBox="-1 -1 44 46" id="image-document" xmlns="http://www.w3.org/2000/svg"><path d="M32 12.878V1H9.007L1 8.36V43h31V31.939" stroke="#CFDAE5" stroke-width="2" stroke-linecap="round" stroke-linejoin="round"/><path d="M1 9h8V1M17 28.609l1.532-7.759a4 4 0 012.786-3.06l4.882-1.449a4 4 0 012.297.007L29 16.5" stroke="#CFDAE5" stroke-width="2" stroke-linecap="round" stroke-linejoin="round"/><path d="M25 25.041l5.46-5.46 5.46-5.46L33.8 12 15.414 30.385l-.354 2.475 2.475-.354L21 29.041" stroke="#E51A3C" stroke-width="2" stroke-linecap="round" stroke-linejoin="round"/><path d="M33.215 17.801l-.699-.715-1.43 1.398.699.715 1.43-1.398zm.424 1.864l.715-.699-.715.7zm6.769 1.205h1a1 1 0 00-1-1v1zm0 10.13v1a1 1 0 001-1h-1zm-10.486 0v-1h-.008l.008 1zm-6.092.05l.008 1-.008-1zm8.092-4.615a1 1 0 100-2v2zm-.137-7.236l1.138 1.165 1.43-1.398-1.138-1.165-1.43 1.398zm4.714 2.67h3.909v-2h-3.909v2zm2.909-1V31h2V20.87h-2zM34.815 30h-4.893v2h4.893v-2zm-4.9 0l-6.093.05.016 2L29.93 32l-.016-2zm-6.108-3.565h8.115v-2h-8.115v2zM40.407 30h-2.795v2h2.796v-2zm-2.795 0h-2.797v2h2.797v-2zM22 28.242c0-.998.81-1.807 1.807-1.807v-2A3.807 3.807 0 0020 28.242h2zm1.822 1.808A1.807 1.807 0 0122 28.242h-2a3.807 3.807 0 003.838 3.808l-.016-2zm9.101-9.686A5 5 0 0036.5 21.87v-2a3 3 0 01-2.145-.904l-1.43 1.398z" fill="#CFDAE5"/><path d="M35.92 14.121l-5.46 5.46" stroke="#E51A3C" stroke-width="2" stroke-linecap="round" stroke-linejoin="round"/><path d="M14 16H8M20 13H8M11.75 33H8" stroke="#CFDAE5" stroke-width="2" stroke-linecap="round"/></svg><svg fill="none" viewBox="-1 -1 56 51" id="image-hands" xmlns="http://www.w3.org/2000/svg"><path d="M25.708 19.763c-.991 0-1.792.848-1.792 1.899v6.33c0 .354-.263.632-.597.632-.335 0-.598-.278-.598-.633V17.864c0-1.05-.8-1.898-1.791-1.898-.992 0-1.792.848-1.792 1.899V27.99c0 .355-.263.633-.598.633-.334 0-.597-.278-.597-.633V16.6c0-1.05-.8-1.899-1.792-1.899-.991 0-1.792.848-1.792 1.899v11.38c0 .354-.262.633-.597.633-.335 0-.597-.279-.597-.633v-7.583c0-1.05-.8-1.899-1.792-1.899s-1.792.849-1.792 1.9v14.442l-4.922-2.974a1.711 1.711 0 00-2.126.278c-.717.734-.741 1.95-.036 2.696l8.1 8.722c.895.975 2.114 1.519 3.404 1.519h8.72c2.64 0 4.779-2.266 4.779-5.063V21.662c0-1.05-.8-1.899-1.792-1.899z" stroke="#DAE2EF" stroke-width="2" stroke-linecap="round" stroke-linejoin="round"/><path d="M35.094 22.969V34.36c0 1.05.8 1.899 1.792 1.899.991 0 1.792-.848 1.792-1.899v-11.38c0-.354.263-.633.597-.633.335 0 .597.279.597.633v7.583c0 1.05.8 1.898 1.792 1.898s1.792-.848 1.792-1.898V16.12l4.922 2.974a1.711 1.711 0 002.126-.278c.717-.734.741-1.95.036-2.696l-8.1-8.722c-.895-.975-2.114-1.519-3.404-1.519h-8.72c-2.64 0-4.779 2.266-4.779 5.063v5.178" stroke="#E51A3C" stroke-width="2" stroke-linecap="round" stroke-linejoin="round"/><path d="M30.64 23.03v9.922c0 1.051.801 1.9 1.793 1.9.991 0 1.792-.849 1.792-1.9v-9.91c0-.502.832-.502.832-.012" stroke="#E51A3C" stroke-width="2" stroke-linecap="round" stroke-linejoin="round"/></svg><svg fill="none" viewBox="-1 -1 84 84" id="image-like" xmlns="http://www.w3.org/2000/svg"><rect x="22" y="36" width="11" height="20" rx="1" stroke="#CFDAE5" stroke-width="2" stroke-linejoin="round"/><circle cx="27.5" cy="50.5" r="1.5" fill="#D9D9D9"/><path d="M33 50v0a5 5 0 005 5h18.5a2.5 2.5 0 002.5-2.5v0a2.5 2.5 0 00-2.5-2.5h-4M50 45h9.5a2.5 2.5 0 002.5-2.5v0a2.5 2.5 0 00-2.5-2.5H50M49.737 40H57.5a2.5 2.5 0 002.5-2.5v0a2.5 2.5 0 00-2.5-2.5h-12M45 35c1.79-3.295 2.828-6.822 3.398-9.303.392-1.704-.99-3.203-2.736-3.105v0c-1.228.068-2.277.924-2.7 2.079A37.75 37.75 0 0140.5 30c-2.291 4.104-7.41 7.818-7.41 7.818M50 50h8.5a2.5 2.5 0 002.5-2.5v0a2.5 2.5 0 00-2.5-2.5H50" stroke="#CFDAE5" stroke-width="2" stroke-linecap="round" stroke-linejoin="round"/><path stroke="#E51A3C" stroke-width="2" stroke-linecap="round" stroke-linejoin="round" d="M39.648 17.973l1.53 2.294M51.482 17.973l-1.529 2.294M46 13v6"/></svg><svg fill="none" viewBox="-1 -1 42 44" id="image-money" xmlns="http://www.w3.org/2000/svg"><path d="M24.79 7.674C28.163 6.423 29.559 1 29.559 1H19.07s1.396 5.006 4.767 6.674M38.14 31.988c0-7.628.953-17.162-12.77-24.314M22.884 7.674C14.252 12.172 11.919 17.686 10.965 21.5M14.302 39.14h22.894c.552 0 1-.351 1-.904v-6.248" stroke="#DAE2EF" stroke-width="2" stroke-linecap="round" stroke-linejoin="round"/><rect x="1" y="36.326" width="13.256" height="4.674" rx="1" stroke="#E51A3C" stroke-width="2" stroke-linejoin="round"/><rect x="1" y="31.558" width="13.256" height="4.674" rx="1" stroke="#E51A3C" stroke-width="2" stroke-linejoin="round"/><rect x="1" y="26.791" width="13.256" height="4.674" rx="1" stroke="#E51A3C" stroke-width="2" stroke-linejoin="round"/><rect x="1" y="22.023" width="13.256" height="4.674" rx="1" stroke="#E51A3C" stroke-width="2" stroke-linejoin="round"/><path d="M24.79 29.605h-4.767M21.977 21.07v10.395M20.023 20.07h5.245a3.337 3.337 0 013.337 3.337v0a3.337 3.337 0 01-3.337 3.337h-5.245" stroke="#DAE2EF" stroke-width="2" stroke-linecap="round"/></svg><svg fill="none" viewBox="-1 -1 46 48" id="image-search" xmlns="http://www.w3.org/2000/svg"><path d="M6.403 33.062V11.735l6.41-6.572h12.342m9.605 9.147v28.357H10.977" stroke="#CFDAE5" stroke-width="2" stroke-linecap="round" stroke-linejoin="round"/><path d="M7.318 12.48h6.403V5.164" stroke="#CFDAE5" stroke-width="2" stroke-linecap="round" stroke-linejoin="round"/><rect x="22.369" y="8.027" width="12.518" height="12.518" rx="6.259" transform="rotate(-45 22.369 8.027)" stroke="#E51A3C" stroke-width="2" stroke-linejoin="round"/><rect x="1" y="40.923" width="9.891" height="3.488" rx="1" stroke="#CFDAE5" stroke-width="2" stroke-linejoin="round"/><rect x="1" y="37.264" width="9.891" height="3.488" rx="1" stroke="#CFDAE5" stroke-width="2" stroke-linejoin="round"/><rect x="1" y="33.605" width="9.891" height="3.488" rx="1" stroke="#CFDAE5" stroke-width="2" stroke-linejoin="round"/><path d="M34.503 12.239l6.645 6.645 1.763-1.762-6.646-6.646" stroke="#E51A3C" stroke-width="2" stroke-linejoin="round"/><path stroke="#CFDAE5" stroke-width="2" stroke-linejoin="round" d="M13.721 16.14h3.659v3.659h-3.659zM13.721 23.458h3.659v3.659h-3.659zM13.721 30.775h3.659v3.659h-3.659z"/><path d="M21.039 25.287h7.318M21.039 17.97h7.318M21.039 32.605h7.318" stroke="#CFDAE5" stroke-width="2" stroke-linecap="round"/></svg><svg fill="none" viewBox="-1 -1 44 44" id="image-shield" xmlns="http://www.w3.org/2000/svg"><g clip-path="url(#jclip0_2311_760)"><path d="M20.744 41.045l.409.854m-.41-.854c-.408.854-.409.853-.409.853l-.002-.001-.009-.005-.031-.016a33.005 33.005 0 01-.564-.308 57.388 57.388 0 01-1.576-.911 56.95 56.95 0 01-4.782-3.19c-1.737-1.302-3.511-2.825-4.86-4.442-1.328-1.591-2.364-3.416-2.364-5.306V8.44m14.598 32.604l.409.854m-.41-.854l-.408.854c.258.135.56.134.818 0m0 0l.003-.002.009-.005.031-.016a34.822 34.822 0 00.564-.308 57.41 57.41 0 001.575-.911 56.95 56.95 0 004.783-3.19c1.737-1.302 3.511-2.825 4.86-4.442 1.327-1.591 2.364-3.416 2.364-5.306V6.557v0-.002m0 0h-.913.913zm0 0a.955.955 0 00-.58-.89L21.075.066a.875.875 0 00-.664 0l-13.686 5.6a.955.955 0 00-.58.89V8.44m0 0h.913-.913z" stroke="#CFDAE5" stroke-width="2" stroke-linecap="round" stroke-linejoin="round"/><path d="M9.732 10.51v16.417c0 4.832 11.012 10.463 11.012 10.463s2.624-1.342 5.31-3.278c2.817-2.03 5.702-4.712 5.702-7.185V10.51M13.402 7.42l7.342-2.81 6.883 2.81" stroke="#CFDAE5" stroke-width="2" stroke-linecap="round" stroke-linejoin="round"/><path d="M17.887 20.26c-.353-.391-.913-.377-1.25.031-.339.409-.327 1.057.026 1.448l1.224-1.479zm2.157 3.813l-.612.74c.35.388.906.378 1.245-.024l-.633-.716zm5.826-5.43a1.142 1.142 0 00-.014-1.448c-.35-.396-.91-.39-1.251.015l1.265 1.433zm-9.207 3.096l2.77 3.074 1.224-1.48-2.77-3.073-1.224 1.48zm4.014 3.05l2.596-3.073-1.264-1.433-2.597 3.074 1.265 1.432zm2.596-3.073l2.597-3.073-1.265-1.433-2.596 3.073 1.264 1.433z" fill="#E51A3C"/></g><defs><clipPath id="jclip0_2311_760"><path fill="#fff" d="M0 0h42v42H0z"/></clipPath></defs></svg><svg fill="none" viewBox="-1 -1 41 45" id="image-star" xmlns="http://www.w3.org/2000/svg"><path d="M13.004 43v-3a5 5 0 00-5-5h-2a5 5 0 00-5 5v3" stroke="#CFDAE5" stroke-width="2" stroke-linejoin="round"/><circle cx="7.004" cy="31" r="4" stroke="#CFDAE5" stroke-width="2" stroke-linejoin="round"/><path d="M1 42h12" stroke="#CFDAE5" stroke-width="2" stroke-linecap="round"/><path d="M26.004 43v-3a5 5 0 00-5-5h-2a5 5 0 00-5 5v3" stroke="#CFDAE5" stroke-width="2" stroke-linejoin="round"/><circle cx="20.004" cy="31" r="4" stroke="#CFDAE5" stroke-width="2" stroke-linejoin="round"/><path d="M14 42h12" stroke="#CFDAE5" stroke-width="2" stroke-linecap="round"/><path d="M38.004 43v-3a5 5 0 00-5-5h-2a5 5 0 00-5 5v3" stroke="#CFDAE5" stroke-width="2" stroke-linejoin="round"/><circle cx="32.004" cy="31" r="4" stroke="#CFDAE5" stroke-width="2" stroke-linejoin="round"/><path d="M26 42h12" stroke="#CFDAE5" stroke-width="2" stroke-linecap="round"/><path d="M19.105 3.802a1 1 0 011.79 0l1.653 3.324a1 1 0 00.752.545l3.683.532a1 1 0 01.553 1.708l-2.656 2.57a1 1 0 00-.29.89l.628 3.637a1 1 0 01-1.448 1.056l-3.307-1.726a1 1 0 00-.926 0l-3.307 1.726a1 1 0 01-1.448-1.056l.628-3.637a1 1 0 00-.29-.89l-2.656-2.57a1 1 0 01.553-1.708L16.7 7.67a1 1 0 00.752-.545l1.652-3.324z" stroke="#CFDAE5" stroke-width="2" stroke-linecap="round" stroke-linejoin="round"/><path d="M13 3.5l-2.214-1.878M7.543 16.216L10 15M31.678 16.216L29.5 15M25.999 3.5l2-2M19.893 21.108V23" stroke="#E51A3C" stroke-width="2" stroke-linecap="round" stroke-linejoin="round"/></svg><svg fill="none" viewBox="-1 -1 34 34" id="image-vk" xmlns="http://www.w3.org/2000/svg"><path fill-rule="evenodd" clip-rule="evenodd" d="M2.25 2.25C0 4.498 0 8.12 0 15.36v1.28c0 7.24 0 10.861 2.25 13.11C4.498 32 8.12 32 15.36 32h1.28c7.24 0 10.861 0 13.11-2.25C32 27.502 32 23.88 32 16.64v-1.28c0-7.24 0-10.861-2.25-13.11C27.502 0 23.88 0 16.64 0h-1.28C8.12 0 4.499 0 2.25 2.25zM5.4 9.732c.173 8.32 4.333 13.32 11.627 13.32h.413v-4.76c2.68.267 4.707 2.227 5.52 4.76h3.787c-1.04-3.786-3.774-5.88-5.48-6.68 1.706-.986 4.106-3.386 4.68-6.64h-3.44c-.747 2.64-2.96 5.04-5.067 5.267V9.733H14v9.227c-2.133-.533-4.827-3.12-4.947-9.227H5.4z" fill="#fff"/></svg></svg>